<svg width="192" height="127" viewBox="0 0 192 127" fill="none" xmlns="http://www.w3.org/2000/svg">
<path d="M115.565 17.931C105.068 24.9916 92.8035 26.3864 48.5071 13.4095C20.0162 5.06196 0.211591 26.6264 0.176846 55.0601C0.159474 69.1743 2.69586 82.8329 8.71369 94.6307C15.9024 108.71 45.7761 137.537 50.2443 112.884C68.6592 11.3226 72.4811 85.4067 91.9383 84.0155C105.114 83.0729 107.921 -5.02462 138.844 117.058C147.256 150.27 191.274 91.7091 191.274 55.0601C191.274 41.5058 188.974 28.3724 183.38 16.9293C169.42 -11.6331 136.759 3.67071 115.565 17.931Z" fill="url(#paint0_radial_2_469)"/>
<mask id="mask0_2_469" style="mask-type:alpha" maskUnits="userSpaceOnUse" x="0" y="0" width="192" height="127">
<path d="M115.565 17.931C105.068 24.9916 92.8035 26.3864 48.5071 13.4095C20.0162 5.06196 0.211591 26.6264 0.176846 55.0601C0.159474 69.1743 2.69586 82.8329 8.71369 94.6307C15.9024 108.71 45.7761 137.537 50.2443 112.884C68.6592 11.3226 72.4811 85.4067 91.9383 84.0155C105.114 83.0729 107.921 -5.02462 138.844 117.058C147.256 150.27 191.274 91.7091 191.274 55.0601C191.274 41.5058 188.974 28.3724 183.38 16.9293C169.42 -11.6331 136.759 3.67071 115.565 17.931Z" fill="white"/>
</mask>
<g mask="url(#mask0_2_469)">
<path d="M21.1131 120.883C21.1131 120.883 38.8331 60.3639 85.7388 108.71C126.37 150.587 180.593 93.7539 180.593 93.7539L177.118 146.274L92.6878 164.012H4.43555L21.1131 120.883Z" fill="url(#paint1_linear_2_469)"/>
<path d="M61.4185 -9.89425C61.4185 -9.89425 20.4194 -9.89425 28.4107 46.4515C32.1145 72.5618 27.2676 102.39 -14.9093 112.428C-57.0862 122.466 -29.1582 -17.5114 -29.1582 -17.5114L79.1384 -78.7612L61.4185 -9.89425Z" fill="url(#paint2_radial_2_469)"/>
<path d="M95.7914 -18.3702C95.7914 -18.3702 91.6116 47.589 132.492 46.2082C173.373 44.8309 191.281 61.9294 191.399 91.5248C191.517 121.12 246.133 30.654 246.133 30.654L174.197 -51.8438L95.7914 -18.3702Z" fill="url(#paint3_radial_2_469)"/>
</g>
<circle cx="79.0046" cy="117.487" r="7.35718" fill="#E05500"/>
<circle cx="108.432" cy="117.487" r="7.35718" fill="#E05500"/>
<defs>
<radialGradient id="paint0_radial_2_469" cx="0" cy="0" r="1" gradientUnits="userSpaceOnUse" gradientTransform="translate(95.7277 63.8587) rotate(-0.0175754) scale(170.62 170.799)">
<stop stop-color="#FF9900"/>
<stop offset="1" stop-color="#C41700"/>
</radialGradient>
<linearGradient id="paint1_linear_2_469" x1="-10.9148" y1="119.258" x2="227.962" y2="136.252" gradientUnits="userSpaceOnUse">
<stop stop-color="#FF9900"/>
<stop offset="1" stop-color="#C41700"/>
</linearGradient>
<radialGradient id="paint2_radial_2_469" cx="0" cy="0" r="1" gradientTransform="matrix(104.787 -0.0795853 0.0321769 259.719 20.4583 17.0909)" gradientUnits="userSpaceOnUse">
<stop stop-color="#FF9900"/>
<stop offset="1" stop-color="#C41700"/>
</radialGradient>
<radialGradient id="paint3_radial_2_469" cx="0" cy="0" r="1" gradientTransform="matrix(134.339 -0.0619882 0.0412515 202.293 170.904 22.8145)" gradientUnits="userSpaceOnUse">
<stop stop-color="#FF9900"/>
<stop offset="1" stop-color="#C41700"/>
</radialGradient>
</defs>
</svg>
